#N canvas 557 376 357 293 10;
#X obj 33 245 netsend -u -b;
#X obj 37 108 list prepend send;
#X obj 37 133 list trim;
#X obj 37 58 list;
#X floatatom 37 36 5 0 0 0 - - -, f 5;
#X msg 79 173 connect 192.168.1.255 5050;
#X msg 79 202 disconnect;
#X obj 37 83 oscformat test;
#X text 78 50 need this object to format argument as list. otherwise
error., f 35;
#X connect 1 0 2 0;
#X connect 2 0 0 0;
#X connect 3 0 7 0;
#X connect 4 0 3 0;
#X connect 5 0 0 0;
#X connect 6 0 0 0;
#X connect 7 0 1 0;
