#N canvas 1 78 633 350 10;
#X obj 33 57 osc/unpackOSC;
#X obj 33 25 netreceive -u -b 5052;
#X obj 4 226 print;
#X obj 33 94 osc/routeOSC /audio;
#X obj 33 128 osc/routeOSC /freq /amp;
#X floatatom 33 163 5 0 0 0 - - -, f 5;
#X floatatom 112 161 5 0 0 0 - - -, f 5;
#X obj 33 191 s freq;
#X obj 112 190 s amp;
#X obj 269 205 dac~;
#X msg 382 147 \; pd dsp 1;
#X msg 465 147 \; pd dsp 0;
#X text 407 185 ON;
#X text 485 183 OFF;
#X obj 269 124 *~ 0;
#X obj 249 3 r freq;
#X obj 294 92 r amp;
#X obj 382 115 loadbang;
#X floatatom 249 32 0 0 0 0 - - -;
#X obj 249 62 sig~;
#X obj 249 93 osc~;
#X obj 343 5 loadbang;
#X msg 344 30 440;
#X connect 0 0 3 0;
#X connect 0 0 2 0;
#X connect 1 0 0 0;
#X connect 3 0 4 0;
#X connect 4 0 5 0;
#X connect 4 1 6 0;
#X connect 5 0 7 0;
#X connect 6 0 8 0;
#X connect 14 0 9 0;
#X connect 14 0 9 1;
#X connect 15 0 18 0;
#X connect 16 0 14 1;
#X connect 17 0 10 0;
#X connect 18 0 19 0;
#X connect 19 0 20 0;
#X connect 20 0 14 0;
#X connect 21 0 22 0;
#X connect 22 0 18 0;
