#N canvas 18 78 661 374 10;
#X msg 58 46 devices;
#X msg 184 97 open \$1;
#X floatatom 184 72 5 0 0 0 - - -, f 5;
#X obj 185 41 bng 15 250 50 0 empty empty empty 17 7 0 10 -262144 -1
-1;
#X obj 193 203 print r;
#X obj 55 205 print;
#X obj 457 86 key;
#X obj 455 111 sel 0;
#X floatatom 506 142 4 0 0 0 ascii - -, f 4;
#X msg 264 99 close;
#X msg 423 165 print \$1;
#X obj 421 198 s toSerial;
#X obj 71 119 r toSerial;
#X text 5 16 1.) list serial devices;
#X text 178 18 2.) open device by id;
#X text 248 78 close if flashing;
#X text 385 219 send keystrokes as integers;
#X obj 56 169 comport/comport 9600;
#X connect 0 0 17 0;
#X connect 1 0 17 0;
#X connect 2 0 1 0;
#X connect 3 0 2 0;
#X connect 6 0 7 0;
#X connect 7 1 8 0;
#X connect 7 1 10 0;
#X connect 9 0 17 0;
#X connect 10 0 11 0;
#X connect 12 0 17 0;
#X connect 17 0 5 0;
#X connect 17 1 4 0;
#X connect 17 1 4 0;
