#N canvas 393 122 787 457 10;
#X obj 33 66 hid;
#X msg 41 14 open 1;
#X obj 21 15 tgl 15 0 empty empty empty 17 7 0 10 -262144 -1 -1 1 1
;
#X floatatom 33 274 5 0 0 0 - - -, f 5;
#X floatatom 97 277 5 0 0 0 - - -, f 5;
#X floatatom 161 276 5 0 0 0 - - -, f 5;
#X floatatom 225 278 5 0 0 0 - - -, f 5;
#X obj 33 246 route abs_ry abs_rx abs_gas abs_brake abs_hat0y abs_hat0x
;
#X floatatom 357 281 5 0 0 0 - - -, f 5;
#X floatatom 293 280 5 0 0 0 - - -, f 5;
#X obj 33 99 route abs key;
#X floatatom 74 181 5 0 0 0 - - -, f 5;
#X floatatom 122 181 5 0 0 0 - - -, f 5;
#X floatatom 169 181 5 0 0 0 - - -, f 5;
#X floatatom 217 180 5 0 0 0 - - -, f 5;
#X floatatom 315 183 5 0 0 0 - - -, f 5;
#X floatatom 265 184 5 0 0 0 - - -, f 5;
#X floatatom 361 183 5 0 0 0 - - -, f 5;
#X floatatom 409 183 5 0 0 0 - - -, f 5;
#X floatatom 456 183 5 0 0 0 - - -, f 5;
#X floatatom 504 182 5 0 0 0 - - -, f 5;
#X floatatom 594 183 5 0 0 0 - - -, f 5;
#X floatatom 552 181 5 0 0 0 - - -, f 5;
#X obj 689 181 print;
#X obj 77 153 route btn_0 btn_1 btn_2 btn_3 btn_4 btn_5 btn_6 btn_7
btn_8 btn_9 btn_10 btn_11 btn_12, f 88;
#X floatatom 645 187 5 0 0 0 - - -, f 5;
#X obj 429 274 print;
#X connect 0 0 10 0;
#X connect 1 0 0 0;
#X connect 2 0 0 0;
#X connect 7 0 3 0;
#X connect 7 1 4 0;
#X connect 7 2 5 0;
#X connect 7 3 6 0;
#X connect 7 4 9 0;
#X connect 7 5 8 0;
#X connect 7 6 26 0;
#X connect 10 0 7 0;
#X connect 10 1 24 0;
#X connect 24 0 11 0;
#X connect 24 1 12 0;
#X connect 24 2 13 0;
#X connect 24 3 14 0;
#X connect 24 4 16 0;
#X connect 24 5 15 0;
#X connect 24 6 17 0;
#X connect 24 7 18 0;
#X connect 24 8 19 0;
#X connect 24 9 20 0;
#X connect 24 10 22 0;
#X connect 24 11 21 0;
#X connect 24 12 25 0;
#X connect 24 13 23 0;
