#N canvas 176 160 983 455 10;
#X obj 35 71 hid;
#X msg 43 19 open 1;
#X obj 23 20 tgl 15 0 empty empty empty 17 7 0 10 -262144 -1 -1 1 1
;
#X floatatom 14 284 5 0 0 0 - - -, f 5;
#X floatatom 122 284 5 0 0 0 - - -, f 5;
#X obj 14 240 r \$0-btn-green;
#X obj 122 241 r \$0-btn-red;
#X obj 336 246 r \$0-btn-blue;
#X obj 219 244 r \$0-btn-yellow;
#X obj 437 245 r \$0-btn-orange;
#X floatatom 222 281 5 0 0 0 - - -, f 5;
#X floatatom 336 279 5 0 0 0 - - -, f 5;
#X floatatom 437 279 5 0 0 0 - - -, f 5;
#X obj 601 275 r \$0-pick-down;
#X obj 600 231 r \$0-pick-up;
#X floatatom 601 297 5 0 0 0 - - -, f 5;
#X floatatom 600 253 5 0 0 0 - - -, f 5;
#X obj 732 182 r \$0-btn-back;
#X obj 834 180 r \$0-btn-start;
#X obj 776 352 r \$0-btn-x;
#X floatatom 776 374 5 0 0 0 - - -, f 5;
#X floatatom 834 202 5 0 0 0 - - -, f 5;
#X floatatom 732 204 5 0 0 0 - - -, f 5;
#X obj 839 282 r \$0-dpad-right;
#X obj 724 282 r \$0-dpad-left;
#X floatatom 839 304 5 0 0 0 - - -, f 5;
#X floatatom 724 304 5 0 0 0 - - -, f 5;
#X obj 278 101 r \$0-axis-01;
#X obj 772 76 r \$0-whammy;
#X obj 390 101 r \$0-axis-02;
#X obj 500 100 r \$0-axis-03;
#N canvas 95 136 1020 529 parse-n-crunch 0;
#X obj 35 14 inlet;
#X obj 30 374 route abs_ry abs_rx abs_gas abs_brake abs_hat0y abs_hat0x
, f 137;
#X obj 33 99 route abs key, f 145;
#X obj 77 153 route btn_0 btn_1 btn_2 btn_3 btn_4 btn_5 btn_6 btn_7
btn_8 btn_9 btn_10 btn_11 btn_12, f 133;
#X obj 78 245 s \$0-btn-green;
#X obj 147 211 s \$0-btn-red;
#X obj 357 191 s \$0-btn-yellow;
#X obj 294 216 s \$0-btn-blue;
#X obj 516 217 s \$0-btn-orange;
#X obj 810 219 s \$0-btn-start;
#X obj 746 252 s \$0-btn-back;
#X obj 897 194 s \$0-btn-x;
#X obj 649 426 == 1;
#X obj 649 426 == 1;
#X obj 694 427 == -1;
#X obj 693 450 s \$0-pick-up;
#X obj 650 478 s \$0-pick-down;
#X obj 822 421 == 1;
#X obj 822 421 == 1;
#X obj 867 422 == -1;
#X obj 869 448 s \$0-dpad-left;
#X obj 823 477 s \$0-dpad-right;
#X obj 30 416 + 32768;
#X obj 30 446 / 65535;
#X obj 30 478 * -1;
#X obj 28 512 + 1;
#X obj 28 551 s \$0-axis-01;
#X obj 190 418 + 32768;
#X obj 190 448 / 65535;
#X obj 190 480 * -1;
#X obj 188 514 + 1;
#X obj 186 546 s \$0-whammy;
#X obj 347 423 + 25;
#X obj 346 453 / 255;
#X floatatom 346 481 5 0 0 0 - - -, f 5;
#X obj 508 421 + 18;
#X obj 510 454 / 268;
#X floatatom 510 476 5 0 0 0 - - -, f 5;
#X obj 343 515 s \$0-axis-02;
#X obj 513 509 s \$0-axis-03;
#X obj 1111 641 outlet;
#X obj 709 324 print btns;
#X obj 584 190 s \$0-btn-pedal;
#X connect 0 0 2 0;
#X connect 1 0 22 0;
#X connect 1 1 27 0;
#X connect 1 2 32 0;
#X connect 1 3 35 0;
#X connect 1 4 12 0;
#X connect 1 4 14 0;
#X connect 1 5 17 0;
#X connect 1 5 19 0;
#X connect 1 6 40 0;
#X connect 2 0 1 0;
#X connect 2 1 3 0;
#X connect 2 2 40 0;
#X connect 3 0 4 0;
#X connect 3 1 5 0;
#X connect 3 2 41 0;
#X connect 3 3 7 0;
#X connect 3 4 6 0;
#X connect 3 5 41 0;
#X connect 3 6 8 0;
#X connect 3 7 42 0;
#X connect 3 8 41 0;
#X connect 3 9 41 0;
#X connect 3 10 10 0;
#X connect 3 11 9 0;
#X connect 3 12 11 0;
#X connect 3 13 40 0;
#X connect 12 0 16 0;
#X connect 14 0 15 0;
#X connect 17 0 21 0;
#X connect 19 0 20 0;
#X connect 22 0 23 0;
#X connect 23 0 24 0;
#X connect 24 0 25 0;
#X connect 25 0 26 0;
#X connect 27 0 28 0;
#X connect 28 0 29 0;
#X connect 29 0 30 0;
#X connect 30 0 31 0;
#X connect 32 0 33 0;
#X connect 33 0 34 0;
#X connect 34 0 38 0;
#X connect 35 0 36 0;
#X connect 36 0 37 0;
#X connect 37 0 39 0;
#X restore 35 119 pd parse-n-crunch;
#X obj 34 154 print;
#X floatatom 772 98 5 0 0 0 - - -, f 5;
#X floatatom 278 123 5 0 0 0 - - -, f 5;
#X floatatom 390 123 5 0 0 0 - - -, f 5;
#X floatatom 500 122 5 0 0 0 - - -, f 5;
#X msg 120 23 close;
#X obj 317 382 r \$0-btn-pedal;
#X floatatom 317 404 5 0 0 0 - - -, f 5;
#X connect 0 0 31 0;
#X connect 1 0 0 0;
#X connect 2 0 0 0;
#X connect 5 0 3 0;
#X connect 6 0 4 0;
#X connect 7 0 11 0;
#X connect 8 0 10 0;
#X connect 9 0 12 0;
#X connect 13 0 15 0;
#X connect 14 0 16 0;
#X connect 17 0 22 0;
#X connect 18 0 21 0;
#X connect 19 0 20 0;
#X connect 23 0 25 0;
#X connect 24 0 26 0;
#X connect 27 0 34 0;
#X connect 28 0 33 0;
#X connect 29 0 35 0;
#X connect 30 0 36 0;
#X connect 31 0 32 0;
#X connect 37 0 0 0;
#X connect 38 0 39 0;
